<svg width="21" height="18" viewBox="0 0 21 18" fill="none" xmlns="http://www.w3.org/2000/svg">
<path d="M20.4009 8.22513L20.5619 8.37335V7.92288C20.5619 6.93091 19.8511 6.12334 18.9782 6.12334H17.5822C16.6055 2.14148 13.2782 0 8.3284 0C5.1764 0 4.77152 0 1.78649 0C1.78649 0 2.68271 0.736971 2.68271 3.05758V6.12567H1.03218C0.711375 6.12567 0.410248 6.0043 0.160999 5.77498L0 5.62677V6.07724C0 7.06979 0.710779 7.87678 1.58375 7.87678H2.68331V9.62672H1.03278C0.711971 9.62672 0.410845 9.50594 0.161595 9.27603L0.000596291 9.12782V9.57771C0.000596291 10.5697 0.711375 11.3761 1.58435 11.3761H2.68391V14.579C2.68391 16.8342 1.78768 17.5 1.78768 17.5H8.32959C13.435 17.5 16.6562 15.3434 17.5948 11.3743H19.5303C19.8511 11.3743 20.1523 11.4951 20.4015 11.7244L20.5625 11.8726V11.4228C20.5625 10.4308 19.8517 9.6238 18.9788 9.6238H17.8518C17.8708 9.33905 17.881 9.04788 17.881 8.74854C17.881 8.4492 17.8702 8.15861 17.8506 7.87386H19.5303C19.8505 7.87386 20.1523 7.99465 20.4015 8.22455L20.4009 8.22513ZM5.36364 0.875846H8.09823C11.7773 0.875846 13.9085 2.47057 14.5441 6.12392L5.36364 6.12509V0.875846ZM8.12148 16.6259H5.36304V11.3755L14.5382 11.3743C13.9437 14.6805 12.0296 16.5314 8.12148 16.6259ZM14.7481 8.75029C14.7481 9.04963 14.7415 9.34139 14.7278 9.62497L5.36364 9.62614V7.8762L14.7284 7.87503C14.7415 8.15745 14.7481 8.44862 14.7481 8.75029Z" fill="white"/>
</svg>
